<svg width="19" height="19" viewBox="0 0 19 19" fill="none" xmlns="http://www.w3.org/2000/svg">
<path d="M19 16.9643V2.03571C19 0.91183 18.0882 0 16.9643 0H2.03571C0.91183 0 0 0.91183 0 2.03571V16.9643C0 18.0882 0.91183 19 2.03571 19H16.9643C18.0882 19 19 18.0882 19 16.9643ZM4.75 6.78571C4.37509 6.78571 4.07143 6.48205 4.07143 6.10714V4.75C4.07143 4.37509 4.37509 4.07143 4.75 4.07143H10.1786C10.5535 4.07143 10.8571 4.37509 10.8571 4.75V6.10714C10.8571 6.48205 10.5535 6.78571 10.1786 6.78571H4.75ZM4.75 10.8571C4.37509 10.8571 4.07143 10.5535 4.07143 10.1786V8.82143C4.07143 8.44652 4.37509 8.14286 4.75 8.14286H14.25C14.6249 8.14286 14.9286 8.44652 14.9286 8.82143V10.1786C14.9286 10.5535 14.6249 10.8571 14.25 10.8571H4.75ZM4.75 14.9286C4.37509 14.9286 4.07143 14.6249 4.07143 14.25V12.8929C4.07143 12.5179 4.37509 12.2143 4.75 12.2143H7.46429C7.8392 12.2143 8.14286 12.5179 8.14286 12.8929V14.25C8.14286 14.6249 7.8392 14.9286 7.46429 14.9286H4.75Z" fill="#D9D9D9"/>
</svg>
