<svg width="19" height="19" viewBox="0 0 19 19" fill="none" xmlns="http://www.w3.org/2000/svg">
<path d="M0 1.04817C0 0.469722 0.469722 0 1.04817 0H17.9518C18.5303 0 19 0.469722 19 1.04817V17.9518C18.9997 18.2297 18.8892 18.4962 18.6927 18.6927C18.4962 18.8892 18.2297 18.9997 17.9518 19H1.04817C0.770176 19 0.50357 18.8896 0.307001 18.693C0.110432 18.4964 0 18.2298 0 17.9518V1.04817ZM8.04544 5.71583C7.98192 5.67345 7.90808 5.64909 7.83181 5.64534C7.75553 5.6416 7.67967 5.65862 7.61229 5.69458C7.54492 5.73054 7.48856 5.7841 7.44922 5.84955C7.40988 5.91501 7.38903 5.98991 7.38889 6.06628V12.9337C7.38903 13.0101 7.40988 13.085 7.44922 13.1504C7.48856 13.2159 7.54492 13.2695 7.61229 13.3054C7.67967 13.3414 7.75553 13.3584 7.83181 13.3547C7.90808 13.3509 7.98192 13.3266 8.04544 13.2842L13.1955 9.8515C13.2532 9.81279 13.3005 9.76048 13.3332 9.69918C13.3659 9.63788 13.383 9.56947 13.383 9.5C13.383 9.43053 13.3659 9.36212 13.3332 9.30082C13.3005 9.23952 13.2532 9.18721 13.1955 9.1485L8.04544 5.71583Z" fill="#D9D9D9"/>
</svg>
