<svg width="16" height="16" viewBox="0 0 16 16" fill="none" xmlns="http://www.w3.org/2000/svg">
<path d="M10.5 0C7.424 0 5 2.424 5 5.5C5 5.897 5.04 6.296 5.122 6.675C5.18 6.945 5.114 7.179 4.98 7.313L0.44 11.853C0.300434 11.9924 0.189731 12.1579 0.114229 12.3402C0.038728 12.5224 -8.92564e-05 12.7177 1.54108e-07 12.915V14.5C1.54108e-07 14.8978 0.158035 15.2794 0.43934 15.5607C0.720645 15.842 1.10218 16 1.5 16H3.5C3.89782 16 4.27936 15.842 4.56066 15.5607C4.84196 15.2794 5 14.8978 5 14.5V14H6C6.26522 14 6.51957 13.8946 6.70711 13.7071C6.89464 13.5196 7 13.2652 7 13V12C7 11.49 7.255 11.038 7.646 10.767L6.439 9.56C6.29961 9.4207 6.18904 9.2553 6.11359 9.07325C6.03815 8.8912 5.99932 8.69606 5.99932 8.499C5.99932 8.30194 6.03815 8.1068 6.11359 7.92475C6.18904 7.7427 6.29961 7.5773 6.439 7.438L8.439 5.438C8.67947 5.1964 8.99507 5.0439 9.33379 5.00564C9.67252 4.96739 10.0142 5.04564 10.3025 5.22752C10.5908 5.4094 10.8085 5.68405 10.9199 6.00624C11.0312 6.32842 11.0295 6.67892 10.915 7H12C13.2101 7.0003 14.379 7.43945 15.29 8.236C15.744 7.434 16 6.5 16 5.5C16 2.424 13.576 0 10.5 0ZM12 3C12.2652 3 12.5196 3.10536 12.7071 3.29289C12.8946 3.48043 13 3.73478 13 4C13 4.26522 12.8946 4.51957 12.7071 4.70711C12.5196 4.89464 12.2652 5 12 5C11.7348 5 11.4804 4.89464 11.2929 4.70711C11.1054 4.51957 11 4.26522 11 4C11 3.73478 11.1054 3.48043 11.2929 3.29289C11.4804 3.10536 11.7348 3 12 3ZM9.854 6.854C9.94789 6.76011 10.0006 6.63278 10.0006 6.5C10.0006 6.36722 9.94789 6.23989 9.854 6.146C9.76011 6.05211 9.63278 5.99937 9.5 5.99937C9.36722 5.99937 9.23989 6.05211 9.146 6.146L7.146 8.146C7.09944 8.19245 7.06249 8.24762 7.03729 8.30837C7.01208 8.36911 6.99911 8.43423 6.99911 8.5C6.99911 8.56577 7.01208 8.63089 7.03729 8.69163C7.06249 8.75238 7.09944 8.80755 7.146 8.854L9.146 10.854C9.23989 10.9479 9.36722 11.0006 9.5 11.0006C9.63278 11.0006 9.76011 10.9479 9.854 10.854C9.94789 10.7601 10.0006 10.6328 10.0006 10.5C10.0006 10.3672 9.94789 10.2399 9.854 10.146L8.707 9H12C12.5933 9 13.1734 9.17595 13.6667 9.50559C14.1601 9.83524 14.5446 10.3038 14.7716 10.8519C14.9987 11.4001 15.0581 12.0033 14.9424 12.5853C14.8266 13.1672 14.5409 13.7018 14.1213 14.1213C13.7018 14.5409 13.1672 14.8266 12.5853 14.9424C12.0033 15.0581 11.4001 14.9987 10.8519 14.7716C10.3038 14.5446 9.83524 14.1601 9.50559 13.6667C9.17595 13.1734 9 12.5933 9 12C9 11.8674 8.94732 11.7402 8.85355 11.6464C8.75979 11.5527 8.63261 11.5 8.5 11.5C8.36739 11.5 8.24021 11.5527 8.14645 11.6464C8.05268 11.7402 8 11.8674 8 12C8 12.7911 8.2346 13.5645 8.67412 14.2223C9.11365 14.8801 9.73836 15.3928 10.4693 15.6955C11.2002 15.9983 12.0044 16.0775 12.7804 15.9231C13.5563 15.7688 14.269 15.3878 14.8284 14.8284C15.3878 14.269 15.7688 13.5563 15.9231 12.7804C16.0775 12.0044 15.9983 11.2002 15.6955 10.4693C15.3928 9.73836 14.8801 9.11365 14.2223 8.67412C13.5645 8.2346 12.7911 8 12 8H8.707L9.854 6.854Z" fill="#D9D9D9"/>
</svg>
