<svg width="22" height="18" viewBox="0 0 22 18" fill="none" xmlns="http://www.w3.org/2000/svg">
<path d="M1 1L0.999999 17" stroke="#D9D9D9" stroke-width="2" stroke-linecap="round"/>
<path d="M6 8C5.44772 8 5 8.44772 5 9C5 9.55228 5.44772 10 6 10V8ZM21.7071 9.70711C22.0976 9.31658 22.0976 8.68342 21.7071 8.29289L15.3431 1.92893C14.9526 1.53841 14.3195 1.53841 13.9289 1.92893C13.5384 2.31946 13.5384 2.95262 13.9289 3.34315L19.5858 9L13.9289 14.6569C13.5384 15.0474 13.5384 15.6805 13.9289 16.0711C14.3195 16.4616 14.9526 16.4616 15.3431 16.0711L21.7071 9.70711ZM6 10L21 10V8L6 8V10Z" fill="#D9D9D9"/>
</svg>
