<svg width="22" height="18" viewBox="0 0 22 18" fill="none" xmlns="http://www.w3.org/2000/svg">
<path d="M21 17L21 1" stroke="#D9D9D9" stroke-width="2" stroke-linecap="round"/>
<path d="M16 10C16.5523 10 17 9.55228 17 9C17 8.44772 16.5523 8 16 8L16 10ZM0.292892 8.29289C-0.0976325 8.68342 -0.0976325 9.31658 0.292892 9.70711L6.65685 16.0711C7.04738 16.4616 7.68054 16.4616 8.07107 16.0711C8.46159 15.6805 8.46159 15.0474 8.07107 14.6569L2.41421 9L8.07107 3.34315C8.46159 2.95262 8.46159 2.31946 8.07107 1.92893C7.68054 1.53841 7.04738 1.53841 6.65685 1.92893L0.292892 8.29289ZM16 8L0.999999 8L0.999998 10L16 10L16 8Z" fill="#D9D9D9"/>
</svg>
