<svg width="19" height="19" viewBox="0 0 19 19" fill="none" xmlns="http://www.w3.org/2000/svg">
<path d="M5.80556 11.0833L8.44444 14.25L12.1389 9.5L16.8889 15.8333H2.11111M19 16.8889V2.11111C19 1.55121 18.7776 1.01424 18.3817 0.61833C17.9858 0.22242 17.4488 0 16.8889 0H2.11111C1.55121 0 1.01424 0.22242 0.61833 0.61833C0.22242 1.01424 0 1.55121 0 2.11111V16.8889C0 17.4488 0.22242 17.9858 0.61833 18.3817C1.01424 18.7776 1.55121 19 2.11111 19H16.8889C17.4488 19 17.9858 18.7776 18.3817 18.3817C18.7776 17.9858 19 17.4488 19 16.8889Z" fill="#D9D9D9"/>
</svg>
