<svg width="18" height="18" viewBox="0 0 18 18" fill="none" xmlns="http://www.w3.org/2000/svg">
<path d="M17.0004 7.98506C16.7558 6.22528 15.9395 4.59472 14.677 3.34455C13.4146 2.09439 11.7762 1.29398 10.0141 1.06661C8.25198 0.839245 6.46402 1.19754 4.9256 2.0863C3.38718 2.97507 2.18365 4.34499 1.5004 5.98506M1.0004 1.98506V5.98506H5.0004M1.0004 9.98506C1.24496 11.7448 2.06133 13.3754 3.32376 14.6256C4.58619 15.8757 6.22464 16.6761 7.98673 16.9035C9.74881 17.1309 11.5368 16.7726 13.0752 15.8838C14.6136 14.995 15.8171 13.6251 16.5004 11.9851M17.0004 15.9851V11.9851H13.0004" stroke="#D9D9D9" stroke-width="2" stroke-linecap="round" stroke-linejoin="round"/>
</svg>
