<svg width="15" height="15" viewBox="0 0 15 15" fill="none" xmlns="http://www.w3.org/2000/svg">
<path fill-rule="evenodd" clip-rule="evenodd" d="M4.97565 1.31829C3.92262 1.20155 2.85991 1.20155 1.80688 1.31829C1.68525 1.33199 1.57173 1.38612 1.48451 1.472C1.39729 1.55789 1.34141 1.67055 1.32582 1.79196C1.2012 2.85744 1.2012 3.93382 1.32582 4.99931C1.34162 5.12069 1.39769 5.23326 1.48506 5.319C1.57243 5.40473 1.68604 5.45866 1.8077 5.47216C2.8511 5.58873 3.93143 5.58873 4.97483 5.47216C5.09649 5.45866 5.2101 5.40473 5.29747 5.319C5.38484 5.23326 5.44091 5.12069 5.45671 4.99931C5.58149 3.93375 5.58149 2.8567 5.45671 1.79114C5.44091 1.66976 5.38484 1.55718 5.29747 1.47145C5.2101 1.38572 5.09649 1.33178 4.97483 1.31829M1.66979 0.0951126C2.81339 -0.0317042 3.9675 -0.0317042 5.1111 0.0951126C5.92381 0.185414 6.58301 0.825734 6.67906 1.6483C6.81479 2.80896 6.81479 3.98149 6.67906 5.14215C6.63103 5.53996 6.45005 5.90988 6.16545 6.19195C5.88085 6.47402 5.50932 6.65169 5.1111 6.69616C3.97658 6.82258 2.8043 6.82258 1.66979 6.69616C1.27157 6.65169 0.900039 6.47402 0.615439 6.19195C0.330839 5.90988 0.149854 5.53996 0.101826 5.14215C-0.033942 3.98149 -0.033942 2.80896 0.101826 1.6483C0.150026 1.25064 0.331087 0.880903 0.615672 0.599C0.900256 0.317098 1.27169 0.139546 1.66979 0.0951126ZM4.97565 9.52752C3.92262 9.41077 2.85991 9.41077 1.80688 9.52752C1.68537 9.54119 1.57195 9.5952 1.48474 9.68092C1.39753 9.76663 1.34158 9.87911 1.32582 10.0004C1.20114 11.0661 1.20114 12.1428 1.32582 13.2085C1.34162 13.3299 1.39769 13.4425 1.48506 13.5282C1.57243 13.614 1.68604 13.6679 1.8077 13.6814C2.8511 13.798 3.93143 13.798 4.97483 13.6814C5.09649 13.6679 5.2101 13.614 5.29747 13.5282C5.38484 13.4425 5.44091 13.3299 5.45671 13.2085C5.58149 12.143 5.58149 11.0659 5.45671 10.0004C5.44091 9.87899 5.38484 9.76641 5.29747 9.68068C5.2101 9.59495 5.09649 9.54102 4.97483 9.52752M1.66979 8.30434C2.81339 8.17757 3.9675 8.17757 5.1111 8.30434C5.92381 8.39465 6.58301 9.03497 6.67906 9.85753C6.81479 11.0182 6.81479 12.1907 6.67906 13.3514C6.63086 13.749 6.4498 14.1188 6.16522 14.4007C5.88063 14.6826 5.5092 14.8601 5.1111 14.9046C3.97658 15.0318 2.8043 15.0318 1.66979 14.9046C1.27169 14.8601 0.900256 14.6826 0.615672 14.4007C0.331087 14.1188 0.150026 13.749 0.101826 13.3514C-0.033942 12.1907 -0.033942 11.0182 0.101826 9.85753C0.150026 9.45987 0.331087 9.09013 0.615672 8.80823C0.900256 8.52633 1.27169 8.34878 1.66979 8.30434ZM13.1849 1.31829C12.1318 1.20156 11.0691 1.20156 10.0161 1.31829C9.89448 1.33199 9.78096 1.38612 9.69374 1.472C9.60652 1.55789 9.55064 1.67055 9.53505 1.79196C9.41044 2.85745 9.41044 3.93382 9.53505 4.99931C9.55085 5.12069 9.60692 5.23326 9.69429 5.319C9.78166 5.40473 9.89527 5.45866 10.0169 5.47216C11.0603 5.58873 12.1407 5.58873 13.1841 5.47216C13.3057 5.45866 13.4193 5.40473 13.5067 5.319C13.5941 5.23326 13.6501 5.12069 13.6659 4.99931C13.7907 3.93375 13.7907 2.8567 13.6659 1.79114C13.6501 1.66976 13.5941 1.55718 13.5067 1.47145C13.4193 1.38572 13.3065 1.33178 13.1849 1.31829ZM9.87902 0.0951126C11.0226 -0.0317042 12.1767 -0.0317042 13.3203 0.0951126C14.133 0.185414 14.7922 0.825734 14.8883 1.6483C15.024 2.80896 15.024 3.98149 14.8883 5.14215C14.8403 5.53996 14.6593 5.90988 14.3747 6.19195C14.0901 6.47402 13.7186 6.65169 13.3203 6.69616C12.1858 6.82258 11.0135 6.82258 9.87902 6.69616C9.4808 6.65169 9.10927 6.47402 8.82467 6.19195C8.54007 5.90988 8.35909 5.53996 8.31106 5.14215C8.17524 3.98149 8.17524 2.80896 8.31106 1.6483C8.35926 1.25064 8.54032 0.880903 8.8249 0.599C9.10949 0.317098 9.48092 0.139546 9.87902 0.0951126ZM13.1849 9.52752C12.1318 9.41077 11.0691 9.41077 10.0161 9.52752C9.8946 9.54119 9.78118 9.5952 9.69397 9.68092C9.60676 9.76663 9.55081 9.87911 9.53505 10.0004C9.41038 11.0661 9.41038 12.1428 9.53505 13.2085C9.55085 13.3299 9.60692 13.4425 9.69429 13.5282C9.78166 13.614 9.89527 13.6679 10.0169 13.6814C11.0603 13.798 12.1407 13.798 13.1841 13.6814C13.3057 13.6679 13.4193 13.614 13.5067 13.5282C13.5941 13.4425 13.6501 13.3299 13.6659 13.2085C13.7907 12.143 13.7907 11.0659 13.6659 10.0004C13.6501 9.87899 13.5941 9.76641 13.5067 9.68068C13.4193 9.59495 13.3065 9.54102 13.1849 9.52752ZM9.87902 8.30434C11.0226 8.17757 12.1767 8.17757 13.3203 8.30434C14.133 8.39465 14.7922 9.03497 14.8883 9.85753C15.024 11.0182 15.024 12.1907 14.8883 13.3514C14.8401 13.749 14.659 14.1188 14.3744 14.4007C14.0899 14.6826 13.7184 14.8601 13.3203 14.9046C12.1858 15.0318 11.0135 15.0318 9.87902 14.9046C9.48092 14.8601 9.10949 14.6826 8.8249 14.4007C8.54032 14.1188 8.35926 13.749 8.31106 13.3514C8.17524 12.1907 8.17524 11.0182 8.31106 9.85753C8.35926 9.45987 8.54032 9.09013 8.8249 8.80823C9.10949 8.52633 9.48092 8.34878 9.87902 8.30434Z" fill="#D9D9D9"/>
</svg>
