<svg width="30" height="32" viewBox="0 0 30 32" fill="none" xmlns="http://www.w3.org/2000/svg">
<path d="M28.3675 24.1383L28.369 24.1409C28.4548 24.2858 28.4994 24.4486 28.5 24.6131C28.5006 24.7776 28.4572 24.9406 28.3725 25.0861C28.2876 25.2318 28.1635 25.3557 28.0104 25.4432C27.8574 25.5306 27.682 25.5777 27.502 25.5781C27.5016 25.5781 27.5013 25.5781 27.5009 25.5781L21.1253 25.5781H20.6682H19.9047H18.5358H11.4658H10.0969H9.33331H8.87628H2.49969C2.31928 25.578 2.1434 25.5309 1.99002 25.4434C1.8368 25.356 1.71262 25.232 1.62768 25.0864C1.54285 24.9409 1.49943 24.7777 1.50001 24.6132C1.50058 24.4487 1.54513 24.2858 1.63102 24.1409L1.63251 24.1383C2.67827 22.3649 3.99862 17.9156 3.99862 12.3082C3.99862 9.44934 5.15198 6.70272 7.21276 4.67391C9.27432 2.64433 12.0753 1.5 15.0008 1.5C17.9262 1.5 20.7272 2.64433 22.7888 4.67391C24.8496 6.70272 26.0029 9.44934 26.0029 12.3082C26.0029 17.9136 27.3215 22.3646 28.3675 24.1383Z" stroke="#5C5C5C" stroke-width="3"/>
</svg>
