<svg width="34" height="35" viewBox="0 0 34 35" fill="none" xmlns="http://www.w3.org/2000/svg">
<path d="M27.0249 1.15757L3.26471 9.07404C2.32845 9.38789 1.51186 9.9829 0.926287 10.7779C0.340711 11.573 0.0146435 12.5293 -0.00745847 13.5166C-0.0295605 14.504 0.253378 15.4742 0.802781 16.295C1.35218 17.1158 2.14132 17.7473 3.06258 18.1034L11.8549 21.4655C12.0635 21.5508 12.2529 21.6768 12.4123 21.8361C12.5716 21.9954 12.6976 22.1849 12.7829 22.3934L16.145 31.1858C16.4318 31.9326 16.9008 32.596 17.5092 33.1157C18.1175 33.6353 18.8461 33.9947 19.6286 34.1612C20.4111 34.3278 21.2227 34.2961 21.9897 34.0692C22.7567 33.8422 23.4548 33.4272 24.0205 32.8618C24.5449 32.3268 24.943 31.6812 25.1856 30.9723L33.1021 7.21215C33.3812 6.36763 33.4201 5.46209 33.2146 4.59657C33.009 3.73105 32.567 2.93959 31.9379 2.31049C31.3088 1.68139 30.5173 1.2394 29.6518 1.03382C28.7863 0.828244 27.8807 0.867171 27.0362 1.14626L27.0249 1.15757ZM30.0582 6.20459L22.1417 29.9648C22.0336 30.2727 21.834 30.5401 21.5696 30.7312C21.3052 30.9224 20.9886 31.0281 20.6623 31.0342C20.3361 31.0403 20.0157 30.9465 19.7442 30.7654C19.4727 30.5843 19.263 30.3245 19.1433 30.0209L15.7699 21.2398C15.7237 21.1237 15.6708 21.0103 15.6114 20.9003L23.4061 13.1056C23.7062 12.8056 23.8747 12.3986 23.8746 11.9742C23.8746 11.5498 23.7059 11.1428 23.4058 10.8426C23.1056 10.5425 22.6986 10.3738 22.2742 10.3737C21.8498 10.3737 21.4428 10.5422 21.1428 10.8422L13.348 18.637C13.2381 18.5775 13.1247 18.5246 13.0086 18.4785L4.22752 15.1051C3.92391 14.9854 3.66412 14.7757 3.483 14.5042C3.30188 14.2327 3.20808 13.9123 3.21418 13.586C3.22028 13.2598 3.32599 12.9432 3.51713 12.6788C3.70827 12.4144 3.97571 12.2147 4.28358 12.1066L28.0438 4.19017C28.3241 4.09983 28.6239 4.0886 28.9102 4.15772C29.1965 4.22684 29.4582 4.37362 29.6665 4.58191C29.8748 4.79019 30.0215 5.0519 30.0907 5.3382C30.1598 5.62451 30.1485 5.92431 30.0582 6.20459Z" fill="#5C5C5C"/>
</svg>
