<svg width="16" height="20" viewBox="0 0 16 20" fill="none" xmlns="http://www.w3.org/2000/svg">
<path d="M8.8761 7.80691C9.02275 7.39441 9.64402 7.39441 9.79067 7.80691L10.6506 10.2282C10.8398 10.7604 11.1587 11.244 11.582 11.6406C12.0052 12.0373 12.5212 12.336 13.089 12.5132L15.67 13.3194C16.11 13.4569 16.11 14.0394 15.67 14.1769L13.0876 14.9832C12.52 15.1607 12.0042 15.4597 11.5812 15.8565C11.1582 16.2533 10.8395 16.7371 10.6506 17.2695L9.79067 19.6895C9.75905 19.7798 9.69781 19.8584 9.6157 19.9142C9.53358 19.97 9.43478 20 9.33338 20C9.23199 20 9.13318 19.97 9.05107 19.9142C8.96895 19.8584 8.90771 19.7798 8.8761 19.6895L8.01619 17.2682C7.82705 16.7361 7.50835 16.2526 7.08535 15.856C6.66234 15.4593 6.14665 15.1605 5.57912 14.9832L2.99673 14.1769C2.90039 14.1473 2.8165 14.0899 2.75702 14.0129C2.69755 13.9359 2.66552 13.8433 2.66552 13.7482C2.66552 13.6531 2.69755 13.5605 2.75702 13.4835C2.8165 13.4065 2.90039 13.3491 2.99673 13.3194L5.57912 12.5132C6.14665 12.3358 6.66234 12.037 7.08535 11.6404C7.50835 11.2438 7.82705 10.7603 8.01619 10.2282L8.8761 7.80691ZM3.72598 1.43313C3.7451 1.379 3.78193 1.3319 3.83123 1.29851C3.88053 1.26512 3.9398 1.24715 4.00062 1.24715C4.06144 1.24715 4.12071 1.26512 4.17001 1.29851C4.21931 1.3319 4.25614 1.379 4.27526 1.43313L4.7912 2.88564C5.02184 3.53314 5.56312 4.04065 6.25371 4.2569L7.80288 4.74065C7.86061 4.75857 7.91086 4.7931 7.94646 4.83933C7.98207 4.88555 8.00124 4.94113 8.00124 4.99815C8.00124 5.05517 7.98207 5.11074 7.94646 5.15697C7.91086 5.2032 7.86061 5.23773 7.80288 5.25565L6.25371 5.7394C5.91291 5.84545 5.60323 6.02464 5.34933 6.2627C5.09542 6.50077 4.90431 6.79113 4.7912 7.11066L4.27526 8.56316C4.25614 8.6173 4.21931 8.6644 4.17001 8.69779C4.12071 8.73118 4.06144 8.74915 4.00062 8.74915C3.9398 8.74915 3.88053 8.73118 3.83123 8.69779C3.78193 8.6644 3.7451 8.6173 3.72598 8.56316L3.21004 7.11066C3.09693 6.79113 2.90582 6.50077 2.65191 6.2627C2.39801 6.02464 2.08833 5.84545 1.74753 5.7394L0.198361 5.25565C0.140627 5.23773 0.0903855 5.2032 0.054776 5.15697C0.0191664 5.11074 0 5.05517 0 4.99815C0 4.94113 0.0191664 4.88555 0.054776 4.83933C0.0903855 4.7931 0.140627 4.75857 0.198361 4.74065L1.74753 4.2569C2.08833 4.15085 2.39801 3.97166 2.65191 3.7336C2.90582 3.49553 3.09693 3.20517 3.21004 2.88564L3.72598 1.43313ZM13.1503 0.121879C13.1635 0.0862865 13.1881 0.0554234 13.2209 0.0335804C13.2536 0.0117374 13.2928 0 13.333 0C13.3731 0 13.4123 0.0117374 13.445 0.0335804C13.4778 0.0554234 13.5024 0.0862865 13.5156 0.121879L13.8596 1.08938C14.0129 1.52188 14.3742 1.86064 14.8355 2.00439L15.8673 2.32689C15.9053 2.33923 15.9382 2.36235 15.9615 2.39304C15.9848 2.42373 15.9973 2.46047 15.9973 2.49814C15.9973 2.53581 15.9848 2.57254 15.9615 2.60324C15.9382 2.63393 15.9053 2.65705 15.8673 2.66939L14.8355 2.99189C14.6083 3.06314 14.402 3.18288 14.2326 3.34166C14.0633 3.50045 13.9356 3.69394 13.8596 3.90689L13.5156 4.8744C13.5024 4.90999 13.4778 4.94085 13.445 4.9627C13.4123 4.98454 13.3731 4.99628 13.333 4.99628C13.2928 4.99628 13.2536 4.98454 13.2209 4.9627C13.1881 4.94085 13.1635 4.90999 13.1503 4.8744L12.8063 3.90689C12.7303 3.69394 12.6026 3.50045 12.4333 3.34166C12.2639 3.18288 12.0576 3.06314 11.8304 2.99189L10.7999 2.66939C10.7619 2.65705 10.729 2.63393 10.7057 2.60324C10.6824 2.57254 10.6699 2.53581 10.6699 2.49814C10.6699 2.46047 10.6824 2.42373 10.7057 2.39304C10.729 2.36235 10.7619 2.33923 10.7999 2.32689L11.8318 2.00439C12.2931 1.86064 12.6544 1.52188 12.8077 1.08938L13.1503 0.121879Z" fill="#D9D9D9"/>
</svg>
