<svg width="19" height="20" viewBox="0 0 19 20" fill="none" xmlns="http://www.w3.org/2000/svg">
<path fill-rule="evenodd" clip-rule="evenodd" d="M0 8C0 4.229 -1.25832e-07 2.343 1.23711 1.172C2.47317 -1.19209e-07 4.46394 0 8.44444 0H10.5556C14.5361 0 16.5268 -1.19209e-07 17.7629 1.172C19 2.343 19 4.229 19 8V12C19 15.771 19 17.657 17.7629 18.828C16.5268 20 14.5361 20 10.5556 20H8.44444C4.46394 20 2.47317 20 1.23711 18.828C-1.25832e-07 17.657 0 15.771 0 12V8ZM3.16667 10C3.16667 8.586 3.16667 7.879 3.63111 7.44C4.09344 7 4.83972 7 6.33333 7H12.6667C14.1592 7 14.9055 7 15.3689 7.44C15.8333 7.879 15.8333 8.586 15.8333 10V14C15.8333 15.414 15.8333 16.121 15.3689 16.56C14.9055 17 14.1592 17 12.6667 17H6.33333C4.84078 17 4.0945 17 3.63111 16.56C3.16667 16.122 3.16667 15.415 3.16667 14V10ZM4.22222 3.25C4.01226 3.25 3.8109 3.32902 3.66243 3.46967C3.51396 3.61032 3.43056 3.80109 3.43056 4C3.43056 4.19891 3.51396 4.38968 3.66243 4.53033C3.8109 4.67098 4.01226 4.75 4.22222 4.75H9.5C9.70996 4.75 9.91133 4.67098 10.0598 4.53033C10.2083 4.38968 10.2917 4.19891 10.2917 4C10.2917 3.80109 10.2083 3.61032 10.0598 3.46967C9.91133 3.32902 9.70996 3.25 9.5 3.25H4.22222Z" fill="#D9D9D9"/>
</svg>
